<svg xmlns="http://www.w3.org/2000/svg" width="24" height="24" viewBox="0 0 24 24" fill="none">

<rect width="24" height="24" fill="none"/>
<path d="M20 12a8 8 0 0 1-11.74 7.06L4 20l1-4.03A8 8 0 1 1 20 12Zm-5.3 2.5c-.22-.11-1.3-.64-1.5-.71-.2-.08-.35-.11-.5.11-.14.22-.57.7-.7.84-.13.14-.25.16-.47.05-.22-.11-.93-.34-1.77-1.1-.65-.58-1.09-1.3-1.22-1.52-.13-.22-.01-.34.1-.45.1-.1.22-.25.34-.38.11-.13.15-.22.22-.36.07-.14.03-.27-.02-.38-.05-.11-.5-1.2-.69-1.65-.18-.43-.36-.37-.5-.38l-.42-.01c-.14 0-.38.05-.58.27-.2.22-.76.74-.76 1.8s.78 2.07.89 2.21c.11.14 1.52 2.32 3.68 3.25.51.22.91.35 1.22.45.51.16.97.13 1.34.08.41-.06 1.3-.53 1.48-1.04.18-.51.18-.94.13-1.04-.05-.09-.2-.15-.42-.26Z" stroke="#1B46C5" stroke-width="2.1" stroke-linecap="round" stroke-linejoin="round"/>
</svg>