<svg xmlns="http://www.w3.org/2000/svg" width="512" height="512" viewBox="0 0 512 512" fill="none">

<defs>
  <linearGradient id="monograd" x1="18" y1="18" x2="194" y2="128" gradientUnits="userSpaceOnUse">
    <stop offset="0" stop-color="#1EC5F3"/>
    <stop offset="0.56" stop-color="#2564F2"/>
    <stop offset="1" stop-color="#0F40B5"/>
  </linearGradient>
  <linearGradient id="badgegrad" x1="0" y1="0" x2="48" y2="48"><stop offset="0" stop-color="#62E4DA"/><stop offset="1" stop-color="#17BFA4"/></linearGradient>
  <linearGradient id="brandbg" x1="0" y1="0" x2="512" y2="512" gradientUnits="userSpaceOnUse">
    <stop offset="0" stop-color="#1A4BDB"/>
    <stop offset="1" stop-color="#12329B"/>
  </linearGradient>
  <radialGradient id="glow1" cx="0" cy="0" r="1" gradientUnits="userSpaceOnUse" gradientTransform="translate(92 72) rotate(33) scale(280 220)">
    <stop offset="0" stop-color="rgba(95, 162, 255, 0.45)"/>
    <stop offset="1" stop-color="rgba(95, 162, 255, 0)"/>
  </radialGradient>
  <radialGradient id="glow2" cx="0" cy="0" r="1" gradientUnits="userSpaceOnUse" gradientTransform="translate(420 418) rotate(-135) scale(240 220)">
    <stop offset="0" stop-color="rgba(53, 117, 248, 0.55)"/>
    <stop offset="1" stop-color="rgba(53, 117, 248, 0)"/>
  </radialGradient>
  <filter id="shadow" x="-20%" y="-20%" width="140%" height="140%">
    <feDropShadow dx="0" dy="18" stdDeviation="18" flood-color="#17389A" flood-opacity="0.24"/>
  </filter>
</defs>
<rect width="512" height="512" rx="116" fill="url(#brandbg)"/>
<rect width="512" height="512" rx="116" fill="url(#glow1)"/>
<rect width="512" height="512" rx="116" fill="url(#glow2)"/>
<path d="M42 150 C 92 120, 142 120, 184 154" stroke="rgba(255,255,255,0.06)" stroke-width="18" stroke-linecap="round"/>
<path d="M332 58 C 392 112, 420 166, 450 248" stroke="rgba(255,255,255,0.05)" stroke-width="16" stroke-linecap="round"/>
<path d="M168 428 C 246 392, 302 380, 394 392" stroke="rgba(255,255,255,0.06)" stroke-width="18" stroke-linecap="round"/>
<g filter="url(#shadow)"><g transform="translate(110 118) scale(1.46)"><path d="M26 106 V28 H62 C85 28 99 40 99 58 C99 75 86 86 63 86 H26 M61 86 L100 128" stroke="#FFFFFF" stroke-width="18.98" stroke-linecap="round" stroke-linejoin="round"/><path d="M123 28 L157 128 L191 28" stroke="#FFFFFF" stroke-width="18.98" stroke-linecap="round" stroke-linejoin="round"/></g></g>
</svg>