<svg xmlns="http://www.w3.org/2000/svg" width="320" height="240" viewBox="0 0 320 240" fill="none">

<defs>
  <linearGradient id="cardGrad" x1="0" y1="0" x2="320" y2="240" gradientUnits="userSpaceOnUse">
    <stop offset="0" stop-color="#FFFFFF"/>
    <stop offset="1" stop-color="#F7FAFF"/>
  </linearGradient>
  <linearGradient id="blueGrad" x1="0" y1="0" x2="320" y2="240" gradientUnits="userSpaceOnUse">
    <stop offset="0" stop-color="#4E83FF"/>
    <stop offset="1" stop-color="#245BEB"/>
  </linearGradient>
  <linearGradient id="mintGrad" x1="0" y1="0" x2="320" y2="240" gradientUnits="userSpaceOnUse">
    <stop offset="0" stop-color="#6DE4D7"/>
    <stop offset="1" stop-color="#15C0A5"/>
  </linearGradient>
  <filter id="cardShadow" x="-20%" y="-20%" width="140%" height="140%">
    <feDropShadow dx="0" dy="16" stdDeviation="18" flood-color="#122B73" flood-opacity="0.09"/>
  </filter>
</defs>
<rect width="320" height="240" fill="none"/>

<circle cx="88" cy="184" r="42" fill="rgba(36,91,235,0.08)"/>
<circle cx="248" cy="52" r="36" fill="rgba(57,216,200,0.10)"/>
<rect x="34" y="40" width="252" height="162" rx="28" fill="url(#cardGrad)" stroke="rgba(18,24,38,0.06)" stroke-width="1.2" filter="url(#cardShadow)"/>
<rect x="74" y="80" width="172" height="22" rx="11" fill="rgba(36,91,235,0.08)"/>
<rect x="66" y="128" width="28" height="34" rx="10" fill="#FFFFFF" stroke="rgba(18,24,38,0.08)"/><text x="80" y="151" fill="#121826" font-size="18" text-anchor="middle" font-family="Inter, Arial, sans-serif" font-weight="700">2</text><rect x="106" y="128" width="28" height="34" rx="10" fill="#FFFFFF" stroke="rgba(18,24,38,0.08)"/><text x="120" y="151" fill="#121826" font-size="18" text-anchor="middle" font-family="Inter, Arial, sans-serif" font-weight="700">4</text><rect x="146" y="128" width="28" height="34" rx="10" fill="#FFFFFF" stroke="rgba(18,24,38,0.08)"/><text x="160" y="151" fill="#121826" font-size="18" text-anchor="middle" font-family="Inter, Arial, sans-serif" font-weight="700">8</text><rect x="186" y="128" width="28" height="34" rx="10" fill="#FFFFFF" stroke="rgba(18,24,38,0.08)"/><text x="200" y="151" fill="#121826" font-size="18" text-anchor="middle" font-family="Inter, Arial, sans-serif" font-weight="700">6</text><rect x="226" y="128" width="28" height="34" rx="10" fill="#FFFFFF" stroke="rgba(18,24,38,0.08)"/><text x="240" y="151" fill="#121826" font-size="18" text-anchor="middle" font-family="Inter, Arial, sans-serif" font-weight="700">1</text>
<path d="M100 88 H220" stroke="rgba(36,91,235,0.20)" stroke-width="6" stroke-linecap="round"/>

</svg>