<svg xmlns="http://www.w3.org/2000/svg" width="320" height="240" viewBox="0 0 320 240" fill="none">

<defs>
  <linearGradient id="cardGrad" x1="0" y1="0" x2="320" y2="240" gradientUnits="userSpaceOnUse">
    <stop offset="0" stop-color="#FFFFFF"/>
    <stop offset="1" stop-color="#F7FAFF"/>
  </linearGradient>
  <linearGradient id="blueGrad" x1="0" y1="0" x2="320" y2="240" gradientUnits="userSpaceOnUse">
    <stop offset="0" stop-color="#4E83FF"/>
    <stop offset="1" stop-color="#245BEB"/>
  </linearGradient>
  <linearGradient id="mintGrad" x1="0" y1="0" x2="320" y2="240" gradientUnits="userSpaceOnUse">
    <stop offset="0" stop-color="#6DE4D7"/>
    <stop offset="1" stop-color="#15C0A5"/>
  </linearGradient>
  <filter id="cardShadow" x="-20%" y="-20%" width="140%" height="140%">
    <feDropShadow dx="0" dy="16" stdDeviation="18" flood-color="#122B73" flood-opacity="0.09"/>
  </filter>
</defs>
<rect width="320" height="240" fill="none"/>

<circle cx="76" cy="58" r="34" fill="rgba(36,91,235,0.08)"/>
<circle cx="260" cy="176" r="46" fill="rgba(57,216,200,0.10)"/>
<rect x="36" y="42" width="248" height="156" rx="28" fill="url(#cardGrad)" stroke="rgba(36,91,235,0.08)" stroke-width="1.5" filter="url(#cardShadow)"/>
<path d="M76 92 L160 140 L244 92" stroke="url(#blueGrad)" stroke-width="12" stroke-linecap="round" stroke-linejoin="round"/>
<path d="M76 92 L76 162 C76 172 84 180 94 180 H226 C236 180 244 172 244 162 V92" fill="url(#cardGrad)" stroke="url(#blueGrad)" stroke-width="12" stroke-linejoin="round"/>
<path d="M92 108 L132 138" stroke="rgba(36,91,235,0.25)" stroke-width="8" stroke-linecap="round"/>
<path d="M228 108 L188 138" stroke="rgba(36,91,235,0.25)" stroke-width="8" stroke-linecap="round"/>
<rect x="210" y="36" width="56" height="56" rx="18" fill="url(#mintGrad)"/>
<path d="M226 64 L238 76 L252 52" stroke="#FFFFFF" stroke-width="8" stroke-linecap="round" stroke-linejoin="round"/>

</svg>