<svg xmlns="http://www.w3.org/2000/svg" width="420" height="300" viewBox="0 0 420 300" fill="none">

<defs>
  <linearGradient id="cardGrad" x1="0" y1="0" x2="420" y2="300" gradientUnits="userSpaceOnUse">
    <stop offset="0" stop-color="#FFFFFF"/>
    <stop offset="1" stop-color="#F7FAFF"/>
  </linearGradient>
  <linearGradient id="blueGrad" x1="0" y1="0" x2="420" y2="300" gradientUnits="userSpaceOnUse">
    <stop offset="0" stop-color="#4E83FF"/>
    <stop offset="1" stop-color="#245BEB"/>
  </linearGradient>
  <linearGradient id="mintGrad" x1="0" y1="0" x2="420" y2="300" gradientUnits="userSpaceOnUse">
    <stop offset="0" stop-color="#6DE4D7"/>
    <stop offset="1" stop-color="#15C0A5"/>
  </linearGradient>
  <filter id="cardShadow" x="-20%" y="-20%" width="140%" height="140%">
    <feDropShadow dx="0" dy="16" stdDeviation="18" flood-color="#122B73" flood-opacity="0.09"/>
  </filter>
</defs>
<rect width="420" height="300" fill="none"/>

<circle cx="88" cy="62" r="34" fill="rgba(36,91,235,0.08)"/>
<circle cx="330" cy="244" r="48" fill="rgba(57,216,200,0.10)"/>
<rect x="56" y="38" width="308" height="210" rx="28" fill="#FFFFFF" stroke="rgba(18,24,38,0.08)" stroke-width="1.2" filter="url(#cardShadow)"/>
<rect x="86" y="78" width="146" height="18" rx="9" fill="rgba(36,91,235,0.10)" stroke="none" stroke-width="0" />
<rect x="86" y="112" width="236" height="14" rx="7" fill="rgba(18,24,38,0.08)" stroke="none" stroke-width="0" />
<rect x="86" y="140" width="216" height="14" rx="7" fill="rgba(18,24,38,0.08)" stroke="none" stroke-width="0" />
<rect x="86" y="168" width="180" height="14" rx="7" fill="rgba(18,24,38,0.08)" stroke="none" stroke-width="0" />
<circle cx="306" cy="84" r="22" fill="url(#blueGrad)"/>
<path d="M306 72 V96 M294 84 H318" stroke="#FFFFFF" stroke-width="6" stroke-linecap="round"/>

</svg>